<svg xmlns="http://www.w3.org/2000/svg" version="1.1" xmlns:xlink="http://www.w3.org/1999/xlink" xmlns:svgjs="http://svgjs.com/svgjs" width="32" height="32"><svg xmlns="http://www.w3.org/2000/svg" version="1.0" x="0px" y="0px" viewBox="0 0 100 100" enablebackground="new 0 0 100 100" xmlspace="preserve" fill="#054DA7">
    <g>
      <path d="M7.908,48.418c0.024-0.202-0.001-0.441,0.207-0.505c1.222-0.375,5.363,0.792,6.134,0.984   c0.895,0.224,2.018,0.505,2.82,1.012c0.413,1.96,0.812,3.353,1.484,5.511c-3.7,0.245-7.44-1.251-7.994-1.477   c-0.934-0.379-1.548-0.866-2.03-1.74C8.031,51.301,7.727,49.983,7.908,48.418z"></path>
    </g>
    <g>
      <path d="M7.163,52.554c-0.695-0.28-1.885-0.925-3.652-2.058c-1.689-1.083-0.069-1.928,0.451-2.296   c0.846-0.6,2.429-1.747,3.271-1.988C6.401,47.839,6.122,50.906,7.163,52.554z"></path>
    </g>
    <g>
      <path d="M16.452,0.805c4.697-1.069,13.051,10.715,17.125,19.565c2.243,4.873,6.589,17.436,8.404,24.867   c0.55,2.251,2.527,2.919,4.869,3.155c1.048,0.105,5.356,0.551,10.769,0.537c12.688-0.032,34.33-0.457,36.193-0.548l0.037,0.188   c-7.321,0.916-24.273,3.27-27.818,3.899c-7.832,1.392-10.669,2.117-17.397,4.589c-1.232,0.452-3.422,1.657-2.338,4.877   c1.694,5.032,2.45,12.487,2.765,16.74c1.124,15.139-4.492,19.573-6.295,19.843c-1.27,0.189-4.144-1.051-6.425-4.228   c-10.639-14.82-19.844-48.08-21.631-65.407C14.231,24.248,11.031,2.039,16.452,0.805z M21.314,12.161   c-3.562-0.327-6.268,2.053-6.268,5.581c0,2.939,2.706,6.244,6.268,6.57c3.562,0.327,6.449-1.952,6.451-5.479   C27.767,15.306,24.877,12.487,21.314,12.161z M40.759,80.079c-3.253-1.554-6.775-1.066-8.187,1.173   c-1.175,1.865,0.072,4.985,3.326,6.539c3.253,1.553,6.906,1.198,8.319-1.041C45.63,84.513,44.013,81.631,40.759,80.079z"></path>
    </g>
    <g>
      <path d="M21.987,21.784c-0.144,0-0.292-0.007-0.439-0.02c-2.185-0.2-3.943-2.364-3.943-4.022c0-1.854,1.202-3.052,3.063-3.052   c0.135,0,0.274,0.006,0.413,0.019c2.314,0.212,4.127,2.023,4.126,4.123C25.206,21.011,23.472,21.784,21.987,21.784z M20.48,17.195   c-0.51,0.433-0.512,1.267-0.007,1.862c0.506,0.594,1.329,0.725,1.838,0.291c0.511-0.434,0.514-1.267,0.007-1.861   C21.814,16.893,20.991,16.761,20.48,17.195z"></path>
    </g>
    <path d="M42.242,85.523c-0.562,1.43-2.725,1.919-4.83,1.091c-2.105-0.827-3.356-2.657-2.793-4.089  c0.562-1.431,2.725-1.918,4.83-1.091C41.554,82.263,42.805,84.093,42.242,85.523z M38.616,82.916  c-0.96-0.341-1.916-0.123-2.134,0.488c-0.218,0.612,0.384,1.386,1.345,1.727c0.959,0.343,1.915,0.124,2.133-0.486  C40.178,84.032,39.577,83.259,38.616,82.916z"></path>
    <g>
      <path d="M91.854,39.554c-1.048-3.048-1.432-3.595-2.449-5.281c-1.643-2.723-3.541-3.036-5.527-2.374   c-1.324,0.441-2.86,2.371-3.438,5.843c-0.264,1.578-0.104,4.632,0.24,6.96c-0.382,0.022-12.935-0.44-14.702-0.576   s-13.751-0.271-15.173-0.259c-1.423,0.012-5.222-0.082-7.607,0c0.59,2.519,1.376,2.794,4.339,3.048   c0.854,0.074,5.305,0.476,10.772,0.461c12.409-0.032,27.852,0,30.562-0.127c1.351-0.063,3.322,0.024,4.719-0.1   C93.194,44.649,92.068,40.178,91.854,39.554z"></path>
    </g>
    <g>
      <path d="M97.94,41.221c-0.184-1.435-2.428-2.088-4.649-1.882c0.815,2.77,1.298,4.591,1.759,7.576   C96.26,46.063,98.383,44.689,97.94,41.221z"></path>
    </g>
    <g>
      <path d="M94.989,53.883c-0.168-1.229-0.379-2.056-0.877-3.918c-3.669,0.608-8.973,1.262-11.56,1.495   c0.638,1.396,1.375,2.515,2.252,3.603c2.678,3.321,4.702,4.715,8.069,4.715c1.304,0,2.142-1.353,2.228-2.049   C95.184,57.061,95.288,56.059,94.989,53.883z"></path>
    </g>
    <g>
      <path d="M16.645,48.083c-0.271-0.864-0.681-2.963-0.681-2.963c-0.527-0.237-6.332,0.102-7.079,0.62   c-0.124,0.147-0.221,0.372-0.355,0.71C12.464,46.572,14.757,47.536,16.645,48.083z"></path>
    </g>
    <path d="M9.618,44.398c-0.248-1.391-0.503-2.551-0.774-3.68c-1.036-4.323-1.739-4.686-2.316-4.686l-0.093,0.005  c-0.602,0.071-1.246,0.524-1.264,5.038c-0.005,1.411,0.056,3.107,0.172,4.875c0.321-0.19,0.785-0.442,1.211-0.641  c-0.24-4.054-0.231-6.887,0.044-7.869c0.485,0.875,1.204,3.386,1.894,7.261C8.778,44.604,9.285,44.458,9.618,44.398z"></path>
    <path d="M9.808,54.78c0.463,5.453,0.376,9.331,0.048,10.505c-0.645-1.164-1.71-5.261-2.56-11.541  c-0.046-0.004-0.817-0.276-1.2-0.471c0.43,3.284,0.948,6.375,1.515,8.736c1.036,4.322,1.739,4.685,2.316,4.685l0.093-0.005  c0.602-0.071,1.246-0.524,1.264-5.038c0.007-1.817-0.089-3.99-0.282-6.362C10.746,55.218,10.12,54.955,9.808,54.78z"></path>
  </svg><style>@media (prefers-color-scheme: light) { :root { filter: none; } }
</style></svg>